<svg width="173" height="172" viewBox="0 0 173 172" fill="none" xmlns="http://www.w3.org/2000/svg">
<g clip-path="url(#clip0_47_2)">
<path d="M74.6848 52.87L76.8123 50.7426L78.9397 52.87L82.7332 49.0765L80.6057 46.9491L82.7332 44.8216L78.9397 41.0281L76.8123 43.1556L74.6848 41.0281L70.8913 44.8216L73.0188 46.9491L70.8913 49.0765L74.6848 52.87Z" fill="black"/>
<path d="M93.4644 52.87L95.5919 50.7426L97.7193 52.87L101.513 49.0765L99.3854 46.9491L101.513 44.8216L97.7193 41.0281L95.5919 43.1556L93.4644 41.0281L89.6709 44.8216L91.7984 46.9491L89.6709 49.0765L93.4644 52.87Z" fill="black"/>
<path d="M104.982 91.2153H99.6161V93.8981H96.9333V91.2153H91.5677V93.8981H88.8849V99.2637H91.5677V101.947H88.8849V107.312H91.5677V109.995H96.9333V107.312H99.6161V109.995H104.982V107.312H107.665V101.947H104.982V99.2637H107.665V93.8981H104.982V91.2153ZM99.6161 101.947H96.9333V99.2637H99.6161V101.947Z" fill="black"/>
<path d="M80.8365 75.1185H75.4709V77.8013H72.7881V75.1185H67.4224V77.8013H64.7396V83.1669H67.4224V85.8497H64.7396V91.2154H67.4224V93.8982H72.7881V91.2154H75.4709V93.8982H80.8365V91.2154H83.5193V85.8497H80.8365V83.1669H83.5193V77.8013H80.8365V75.1185ZM75.4709 85.8497H72.7881V83.1669H75.4709V85.8497Z" fill="black"/>
<path d="M169.369 69.7529H144.845L159.939 61.3665L157.337 56.6769L137.175 67.875V65.4953L147.121 55.5502L143.327 51.7567L133.382 61.7045H103.909C106.067 59.6353 107.758 57.1286 108.869 54.3524C109.979 51.5762 110.483 48.5947 110.347 45.6077C110.34 43.8041 110.147 42.006 109.771 40.2421H113.03C113.489 40.2446 113.94 40.1296 114.341 39.908C114.743 39.6864 115.081 39.3656 115.323 38.9762C115.565 38.5869 115.703 38.142 115.725 37.684C115.746 37.226 115.65 36.7702 115.445 36.3601C113.207 31.8608 109.497 28.2631 104.931 26.1654L99.3478 9.46764C98.4287 6.71104 96.6655 4.31349 94.3081 2.61455C91.9508 0.915613 89.1186 0.00140381 86.2128 0.00140381C83.307 0.00140381 80.4749 0.915613 78.1175 2.61455C75.7601 4.31349 73.9969 6.71104 73.0778 9.46764L67.4976 26.1735C62.9315 28.2712 59.2211 31.8689 56.9836 36.3681C56.7815 36.7761 56.6865 37.2289 56.7076 37.6837C56.7287 38.1386 56.8652 38.5806 57.1043 38.9681C57.3435 39.3556 57.6773 39.6759 58.0743 39.8988C58.4714 40.1217 58.9187 40.2398 59.374 40.2421H62.6336C62.2571 42.006 62.0638 43.8041 62.0568 45.6077C61.9208 48.5947 62.425 51.5762 63.5355 54.3524C64.6459 57.1286 66.3371 59.6353 68.4956 61.7045H39.0223L29.0771 51.7594L25.2836 55.5529L35.2288 65.498V67.875L15.0675 56.6769L12.4652 61.3665L27.5587 69.7529H3.03514C2.32361 69.7529 1.64123 70.0356 1.13811 70.5387C0.634985 71.0418 0.352333 71.7242 0.352333 72.4357L0.352333 80.4842C0.352333 81.1957 0.634985 81.8781 1.13811 82.3812C1.64123 82.8843 2.32361 83.167 3.03514 83.167H30.668L17.3881 94.5447L20.8758 98.6172L35.2288 86.3139V90.322L27.7169 100.337L32.0094 103.556L39.5964 93.4394L46.8614 90.6091L48.7394 97.3161C48.8662 97.7667 49.1087 98.1764 49.4429 98.5043C49.7771 98.8322 50.1912 99.067 50.6442 99.1853C51.0972 99.3035 51.5733 99.3012 52.0251 99.1785C52.4769 99.0558 52.8887 98.8169 53.2197 98.4858L56.6912 95.0089V125.349L49.0265 138.124L53.6248 140.887L61.5766 127.634L64.1092 124.469L59.4679 141.483L64.6457 142.894L70.5882 121.107L72.6593 126.285L70.1857 136.174L75.3904 137.472L77.8907 127.465L78.159 127.197V169.017C78.159 169.728 78.4417 170.411 78.9448 170.914C79.4479 171.417 80.1303 171.699 80.8418 171.699H91.573C92.2846 171.699 92.9669 171.417 93.4701 170.914C93.9732 170.411 94.2558 169.728 94.2558 169.017V127.61L94.6073 127.822L97.0218 137.48L102.226 136.182L99.8522 126.687L101.821 124.064L110.546 145.875L115.53 143.884L106.964 122.475L110.803 127.589L118.787 140.896L123.386 138.132L115.713 125.349V95.0089L119.182 98.4777C119.505 98.8006 119.906 99.0355 120.345 99.1601C120.785 99.2847 121.249 99.295 121.694 99.19C122.139 99.0849 122.549 98.8679 122.887 98.5597C123.224 98.2515 123.477 97.8622 123.622 97.4287L125.521 91.7358L132.918 93.587L140.395 103.556L144.687 100.337L137.175 90.322V86.3139L151.528 98.6172L155.016 94.5447L141.736 83.167H169.369C170.081 83.167 170.763 82.8843 171.266 82.3812C171.769 81.8781 172.052 81.1957 172.052 80.4842V72.4357C172.052 71.7242 171.769 71.0418 171.266 70.5387C170.763 70.0356 170.081 69.7529 169.369 69.7529ZM80.8365 63.0915C81.1163 63.0959 81.3915 63.1638 81.6413 63.2901C83.0541 64.0091 84.6169 64.3839 86.2021 64.3839C87.7873 64.3839 89.3501 64.0091 90.7628 63.2901C91.0117 63.161 91.2874 63.092 91.5677 63.0889V64.3873C91.5677 65.8104 91.0024 67.1751 89.9961 68.1814C88.9899 69.1876 87.6251 69.7529 86.2021 69.7529C84.779 69.7529 83.4143 69.1876 82.408 68.1814C81.4018 67.1751 80.8365 65.8104 80.8365 64.3873V63.0915ZM78.1537 11.1659C78.7164 9.47627 79.7965 8.00662 81.2411 6.96517C82.6856 5.92371 84.4212 5.36327 86.2021 5.36327C87.9829 5.36327 89.7186 5.92371 91.1631 6.96517C92.6076 8.00662 93.6878 9.47627 94.2505 11.1659L98.653 24.3518C97.6634 24.2165 96.6658 24.1475 95.667 24.1453H76.7371C75.7383 24.1475 74.7408 24.2165 73.7512 24.3518L78.1537 11.1659ZM76.7371 29.5109H95.667C97.9757 29.5033 100.261 29.9765 102.377 30.9003C104.493 31.824 106.393 33.1782 107.957 34.8765H64.4472C66.0112 33.1782 67.9116 31.824 70.0275 30.9003C72.1434 29.9765 74.4284 29.5033 76.7371 29.5109ZM67.4224 45.6077C67.4187 43.7958 67.656 41.9914 68.128 40.2421H104.276C104.748 41.9914 104.985 43.7958 104.982 45.6077C104.982 52.8781 101.296 59.0217 96.9333 59.0217C96.1795 59.0153 95.4378 58.8315 94.7683 58.4852C93.7745 57.9867 92.6781 57.7271 91.5663 57.7271C90.4546 57.7271 89.3582 57.9867 88.3644 58.4852C87.6965 58.834 86.9542 59.0162 86.2007 59.0162C85.4472 59.0162 84.7049 58.834 84.037 58.4852C83.0438 57.9851 81.9472 57.7246 80.8351 57.7246C79.7231 57.7246 78.6265 57.9851 77.6332 58.4852C76.9641 58.8301 76.2236 59.0139 75.4709 59.0217C71.1086 59.0217 67.4224 52.8781 67.4224 45.6077ZM5.71794 75.1185H35.2288V77.8013H5.71794V75.1185ZM88.8849 166.334H83.5193V121.837L83.9351 121.421L88.8849 124.391V166.334ZM131.81 87.7787L124.411 85.9302C123.755 85.7672 123.063 85.8574 122.471 86.1826C121.879 86.5078 121.432 87.0442 121.218 87.6848L119.903 91.6124L114.927 86.6358C114.552 86.2607 114.074 86.0053 113.553 85.9019C113.033 85.7984 112.494 85.8515 112.004 86.0545C111.513 86.2575 111.094 86.6013 110.8 87.0424C110.505 87.4835 110.347 88.002 110.347 88.5326V118.043L107.128 113.751C106.867 113.434 106.54 113.179 106.168 113.004C105.797 112.828 105.392 112.738 104.982 112.738C104.571 112.738 104.166 112.828 103.795 113.004C103.424 113.179 103.096 113.434 102.835 113.751L96.2384 122.548L84.9009 115.744C84.3879 115.436 83.7865 115.308 83.1924 115.381C82.5984 115.454 82.0458 115.724 81.6225 116.147L76.4501 121.319L72.5976 111.682C72.4237 111.246 72.1385 110.864 71.7703 110.572C71.4022 110.281 70.9641 110.091 70.4997 110.022C70.0354 109.953 69.5611 110.008 69.1242 110.179C68.6873 110.351 68.3031 110.634 68.01 111.001L62.0568 118.443V88.5326C62.0567 88.002 61.8993 87.4835 61.6045 87.0424C61.3097 86.6013 60.8908 86.2575 60.4006 86.0545C59.9105 85.8515 59.3711 85.7984 58.8508 85.9019C58.3305 86.0053 57.8525 86.2607 57.4773 86.6358L52.667 91.4434L51.2237 86.3112C51.1223 85.9508 50.9467 85.6156 50.708 85.3271C50.4694 85.0387 50.173 84.8033 49.8379 84.6363C49.5028 84.4693 49.1365 84.3742 48.7625 84.3573C48.3885 84.3403 48.0151 84.4018 47.6663 84.5379L40.5944 87.2904V67.0701H75.8518C76.4374 69.3709 77.7729 71.4109 79.6472 72.868C81.5216 74.325 83.828 75.116 86.2021 75.116C88.5762 75.116 90.8826 74.325 92.7569 72.868C94.6313 71.4109 95.9668 69.3709 96.5523 67.0701H131.81V87.7787ZM166.686 77.8013H137.175V75.1185H166.686V77.8013Z" fill="black"/>
</g>
<defs>
<clipPath id="clip0_47_2">
<rect width="171.699" height="171.699" fill="white" transform="translate(0.352333)"/>
</clipPath>
</defs>
</svg>
