<!-- icon666.com - MILLIONS vector ICONS FREE --><svg version="1.1" id="Capa_1" xmlns="http://www.w3.org/2000/svg" xmlns:xlink="http://www.w3.org/1999/xlink" x="0px" y="0px" viewBox="0 0 512.001 512.001" style="enable-background:new 0 0 512.001 512.001;" xml:space="preserve"><g><g><path d="M285.001,482.317l-21.086-96.052l18.365-83.661c0.915-4.17-1.723-8.292-5.894-9.209c-4.166-0.914-8.293,1.723-9.209,5.894 l-11.177,50.92l-11.178-50.92c-0.915-4.17-5.04-6.807-9.209-5.894c-4.17,0.915-6.809,5.038-5.894,9.209l18.365,83.661 l-21.374,97.372c-0.914,4.168,1.724,8.29,5.895,9.207c0.559,0.123,1.116,0.181,1.666,0.181c3.552,0,6.75-2.462,7.543-6.074 l14.188-64.632l13.898,63.313c0.794,3.612,3.992,6.075,7.543,6.075c0.549,0,1.107-0.059,1.666-0.181 C283.278,490.61,285.917,486.487,285.001,482.317z"></path></g></g><g><g><path d="M378.997,396.124c4.269,0,7.731-3.461,7.731-7.731v-59.866c0-26.938-17.999-49.739-42.598-57.042v-11.222h0.515 c4.269,0,7.73-3.461,7.73-7.731s-3.461-7.731-7.73-7.731h-0.515v-16.492c0-4.269-3.461-7.73-7.731-7.73h-36.113l3.902-17.779 c0.896,0.051,1.79,0.078,2.683,0.078c9.052,0,17.933-2.579,25.741-7.576c10.783-6.901,18.233-17.587,20.977-30.091l30.295-138.027 c0.439-2.003,0.065-4.098-1.04-5.825c-1.105-1.728-2.851-2.944-4.854-3.384c-11.844-2.6-23.982-0.669-34.416,5.422l3.075-14.008 c0.915-4.17-1.723-8.292-5.893-9.209c-4.171-0.917-8.292,1.722-9.209,5.893l-3.077,14.015c-6.918-9.902-17.14-16.747-28.998-19.35 c-4.17-0.915-8.292,1.723-9.209,5.894l-30.302,138.025c-5.102,23.243,7.685,46.314,29.125,54.815l-4.632,21.105h-56.912 l-4.632-21.101c9.294-3.668,17.188-10.128,22.68-18.708c6.901-10.783,9.19-23.607,6.444-36.112L221.736,6.634 c-0.916-4.17-5.039-6.809-9.209-5.894c-11.853,2.603-22.074,9.444-28.997,19.349l-3.078-14.014 c-0.915-4.17-5.04-6.809-9.209-5.894c-4.17,0.915-6.809,5.038-5.894,9.209l3.075,14.008c-10.428-6.09-22.57-8.021-34.416-5.422 c-2.003,0.44-3.749,1.656-4.854,3.384c-1.105,1.727-1.479,3.822-1.04,5.825L158.41,165.21 c2.745,12.504,10.195,23.192,20.978,30.092c7.809,4.997,16.687,7.576,25.741,7.576c0.893,0,1.787-0.028,2.682-0.077l3.903,17.779 h-36.112c-4.269,0-7.731,3.461-7.731,7.73v16.492h-0.515c-4.269,0-7.731,3.461-7.731,7.731s3.461,7.731,7.731,7.731h0.515v11.222 c-24.599,7.304-42.598,30.105-42.598,57.042v123.971c0,32.81,26.693,59.503,59.503,59.503h142.447 c32.81,0,59.503-26.693,59.503-59.503v-33.18c0-4.269-3.461-7.73-7.731-7.73s-7.73,3.461-7.73,7.73v33.18 c0,24.285-19.757,44.042-44.042,44.042H184.778c-24.285,0-44.042-19.757-44.042-44.042V328.527 c0-24.285,19.757-44.042,44.042-44.042h142.447c24.285,0,44.042,19.757,44.042,44.042v59.866 C371.267,392.662,374.728,396.124,378.997,396.124z M338.487,161.896c-1.859,8.471-6.906,15.709-14.21,20.384 c-5.08,3.252-10.83,4.991-16.71,5.124l5.454-24.845c3.294-14.845,16.329-25.072,30.902-25.426L338.487,161.896z M336.076,57.566 c1.903-8.349,6.916-15.491,14.14-20.121c5.087-3.25,10.835-4.99,16.711-5.124l-4.291,19.546 c-9.315-0.522-18.546,1.687-26.728,6.464L336.076,57.566z M328.332,92.817l0.043-0.172c0.016-0.061,0.029-0.123,0.042-0.185 c1.909-8.331,6.917-15.458,14.129-20.081c5.087-3.25,10.836-4.99,16.712-5.124l-4.292,19.547 c-9.319-0.522-18.551,1.688-26.735,6.468L328.332,92.817z M334.879,107.314c5.087-3.25,10.835-4.99,16.711-5.124l-4.292,19.55 c-9.561-0.521-18.817,1.862-26.741,6.494l0.12-0.543C322.533,119.231,327.58,111.992,334.879,107.314z M303.512,18.399 c5.285,2.583,9.779,6.571,13.033,11.647c4.673,7.313,6.225,16,4.367,24.46l-0.112,0.514c-5.428-7.767-12.89-13.644-21.578-17.074 L303.512,18.399z M295.844,53.333c5.284,2.583,9.779,6.571,13.033,11.647c4.668,7.306,6.219,15.979,4.373,24.429 c-0.002,0.01-0.005,0.022-0.007,0.032l-0.112,0.511c-5.428-7.766-12.889-13.643-21.577-17.073L295.844,53.333z M288.175,88.269 c5.285,2.583,9.779,6.571,13.034,11.647c4.665,7.301,6.217,15.97,4.375,24.415c-0.003,0.014-0.006,0.029-0.01,0.044l-0.121,0.549 c-5.256-7.531-12.666-13.573-21.57-17.105L288.175,88.269z M275.066,147.973l5.436-24.762 c13.107,6.437,20.666,21.222,17.398,36.107l-5.436,24.762C279.357,177.643,271.799,162.858,275.066,147.973z M236.935,147.973 c3.268,14.885-4.29,29.67-17.398,36.107l-5.436-24.762c-3.267-14.885,4.292-29.67,17.399-36.107L236.935,147.973z M195.451,30.055 c3.258-5.083,7.753-9.073,13.038-11.656l4.291,19.547c-8.686,3.43-16.147,9.305-21.578,17.074l-0.112-0.509 c-0.001-0.006-0.003-0.013-0.004-0.02C189.235,46.036,190.786,37.355,195.451,30.055z M145.074,32.321 c5.875,0.134,11.624,1.873,16.703,5.119c7.26,4.654,12.285,11.831,14.172,20.22c0.001,0.006,0.003,0.012,0.004,0.02l0.143,0.654 c-8.179-4.776-17.412-6.987-26.731-6.465L145.074,32.321z M157.033,86.802l-4.291-19.547c5.875,0.134,11.623,1.873,16.703,5.119 c7.256,4.652,12.28,11.824,14.168,20.208l0.151,0.685C175.586,88.491,166.353,86.281,157.033,86.802z M164.703,121.741 l-4.292-19.55c5.874,0.134,11.624,1.873,16.703,5.119c7.266,4.657,12.294,11.841,14.176,20.238l0.15,0.684 C183.517,123.601,174.263,121.22,164.703,121.741z M187.724,182.28c-7.304-4.674-12.35-11.914-14.21-20.384l-5.436-24.762 c14.547,0.356,27.559,10.548,30.882,25.348l5.472,24.922C198.554,187.27,192.803,185.531,187.724,182.28z M198.871,89.954 l-0.115-0.527c-1.853-8.455-0.301-17.136,4.364-24.438c3.258-5.084,7.754-9.073,13.039-11.657l4.291,19.547 C211.763,76.31,204.302,82.186,198.871,89.954z M206.549,124.923l-0.121-0.549c-0.002-0.012-0.005-0.024-0.008-0.036 c-1.844-8.448-0.292-17.119,4.368-24.414c3.258-5.083,7.754-9.073,13.039-11.656l4.292,19.551 C219.215,111.352,211.805,117.394,206.549,124.923z M328.669,244.802h-12.22c-4.269,0-7.73,3.461-7.73,7.731 s3.461,7.731,7.73,7.731h12.22v8.761h-1.443H184.778h-1.443v-8.761h107.344c4.269,0,7.731-3.461,7.731-7.731 s-3.461-7.731-7.731-7.731H183.335v-8.761H221.3c0.007,0,0.013,0.002,0.021,0.002c0.01,0,0.022-0.002,0.033-0.002h69.297 c0.01,0,0.022,0.002,0.033,0.002c0.007,0,0.013-0.002,0.021-0.002h37.965V244.802z"></path></g></g></svg>